<svg width="24" height="24" viewBox="0 0 24 24" fill="none" xmlns="http://www.w3.org/2000/svg">
<g id="interactive/search">
<g id="Union">
<path d="M16.875 10.5C16.875 6.97918 14.0208 4.125 10.5 4.125C6.97918 4.125 4.125 6.97918 4.125 10.5C4.125 14.0208 6.97918 16.875 10.5 16.875C14.0208 16.875 16.875 14.0208 16.875 10.5ZM15.6331 16.959C14.2243 18.0801 12.4404 18.75 10.5 18.75C5.94365 18.75 2.25 15.0563 2.25 10.5C2.25 5.94365 5.94365 2.25 10.5 2.25C15.0563 2.25 18.75 5.94365 18.75 10.5C18.75 12.4404 18.0801 14.2244 16.9589 15.6332L21.7991 20.4734C21.9162 20.5905 21.9162 20.7805 21.7991 20.8976L20.8975 21.7992C20.7803 21.9163 20.5904 21.9163 20.4732 21.7992L15.6331 16.959Z" fill="#101114"/>
</g>
</g>
</svg>
