<svg width="142" height="40" viewBox="0 0 142 40" fill="none" xmlns="http://www.w3.org/2000/svg">
<path d="M63.4509 9.32874C66.9825 9.32874 69.8509 12.1971 69.8509 15.7287C69.8509 19.2604 66.9825 22.1287 63.4509 22.1287C59.9193 22.1287 57.0509 19.2604 57.0509 15.7287C57.0509 12.1971 59.9193 9.32874 63.4509 9.32874ZM63.4509 7.00146C58.6335 7.00146 54.7236 10.9113 54.7236 15.7287C54.7236 20.5462 58.6335 24.456 63.4509 24.456C68.2684 24.456 72.1782 20.5462 72.1782 15.7287C72.1782 10.9113 68.2684 7.00146 63.4509 7.00146Z" fill="#2F3239"/>
<path d="M126.875 9.32874C127.515 9.32874 128.038 8.8051 128.038 8.1651V7.00146H116.402V24.456H126.875C127.515 24.456 128.038 23.9324 128.038 23.2924V22.1287H118.729V16.8924H126.875V14.5651H118.729V9.32874H126.875Z" fill="#2F3239"/>
<path d="M95.4506 7.00146H88.4688V9.32874H93.1233V24.456H94.2869C94.9269 24.456 95.4506 23.9324 95.4506 23.2924V9.32874H98.9415C99.5815 9.32874 100.105 8.8051 100.105 8.1651V7.00146H95.4506Z" fill="#2F3239"/>
<path d="M46.5779 7.00146H40.7598V24.456H41.9234C42.5634 24.456 43.087 23.9324 43.087 23.2924V18.6378H46.5779C49.7896 18.6378 52.3961 16.0313 52.3961 12.8196C52.3961 9.60801 49.7896 7.00146 46.5779 7.00146ZM46.5779 16.3106H43.087V9.32874H46.5779C48.5038 9.32874 50.0689 10.8938 50.0689 12.8196C50.0689 14.7455 48.5038 16.3106 46.5779 16.3106Z" fill="#2F3239"/>
<path d="M86.1417 12.8196C86.1417 9.60801 83.5352 7.00146 80.3236 7.00146H74.5054V24.456H75.669C76.309 24.456 76.8326 23.9324 76.8326 23.2924V18.6378H80.0966L83.4537 24.456H86.1417L82.5286 18.2015C84.6465 17.3346 86.1417 15.2516 86.1417 12.8196ZM76.8326 9.32874H80.3236C82.2494 9.32874 83.8145 10.8938 83.8145 12.8196C83.8145 14.7455 82.2494 16.3106 80.3236 16.3106H76.8326V9.32874Z" fill="#2F3239"/>
<path d="M111.387 24.456H114.075L108.152 14.2044L112.312 7.00146H109.624L104.76 15.4204V7.00146H102.433V24.456H103.596C104.236 24.456 104.76 23.9324 104.76 23.2924V20.0749L106.808 16.5258L111.387 24.4502V24.456Z" fill="#2F3239"/>
<path d="M142.002 7.00146H139.314L136.184 12.424L133.054 7.00146H130.366L135.02 15.0655V24.456H136.184C136.824 24.456 137.348 23.9324 137.348 23.2924V15.0655L142.002 7.00146Z" fill="#2F3239"/>
<path d="M13.6668 5.82536C9.38466 7.70463 6.69084 12.301 8.25593 16.8624C9.20429 19.6203 11.1127 21.5926 13.9519 22.5992C18.909 24.3563 24.0756 20.493 23.4996 15.4661C23.2494 13.3308 22.1672 11.7075 19.9679 11.0268C18.333 10.5264 16.7621 10.7592 15.4763 11.9519C14.3941 12.9584 13.9752 14.2035 14.4116 15.6523C14.6501 16.4494 15.2261 16.9439 16.0116 17.1766C16.6981 17.3861 17.2334 17.0835 17.6465 16.5134C17.565 16.3737 17.4894 16.2224 17.3905 16.0944C16.8552 15.4021 17.2857 14.3955 17.7512 13.9766C18.3796 13.4064 19.3977 13.3541 20.0727 13.8254C21.1548 14.5875 21.6552 16.6181 21.0617 17.8981C20.0727 20.0334 17.5301 21.2726 15.2028 20.6675C11.5257 19.7134 9.71047 16.077 10.8974 12.5686C12.4741 7.90245 17.7803 5.86026 22.301 8.10026C25.9548 9.90972 27.3105 13.0632 27.1708 16.8275C26.9323 23.0181 20.6894 27.6086 14.4232 26.4159C8.34902 25.2581 3.83411 19.4399 4.15993 13.9417C4.27629 11.9112 4.73593 10.0086 5.77156 8.26317C8.46538 3.71917 12.6777 1.5839 17.9432 1.23481C19.3279 1.14172 20.7301 1.21735 22.0508 1.21735C21.981 1.18826 21.8123 1.10099 21.6436 1.04281C19.0661 0.0828089 16.4072 -0.225555 13.6843 0.164263C11.997 0.373718 10.4319 0.833354 9.01811 1.47917C8.99484 1.47917 8.95993 1.49081 8.92502 1.50826C8.29084 1.78172 8.18029 1.15917 7.95338 0.967173C7.73229 0.786809 7.76138 1.01372 7.76138 1.01372C7.95338 1.92717 7.47047 2.29372 7.40647 2.34026C7.00502 2.59045 6.62102 2.85808 6.24866 3.14317C6.23702 3.14317 6.22538 3.14317 6.21956 3.15481C5.34102 3.55626 4.97447 2.87554 4.57302 2.6719C4.14247 2.45663 4.30538 2.81154 4.30538 2.81154C4.83484 3.86463 4.3752 4.76645 4.28793 4.9119C3.91556 5.31335 3.56647 5.73808 3.23484 6.18026C3.19993 6.20354 3.16502 6.22099 3.12429 6.2559C2.2632 7.03554 1.58829 6.41881 1.05884 6.30245C0.471201 6.17445 0.802838 6.55845 0.802838 6.55845C1.89084 7.67554 1.54756 9.01372 1.54756 9.01372C0.157019 12.0392 -0.343344 15.5359 0.238474 19.0443C2.15266 30.5817 16.3432 36.0334 25.6407 28.5977C28.6603 26.1832 30.7548 21.5344 30.9759 17.6886C31.133 14.9541 30.2894 12.4755 28.7301 10.2355C25.4254 5.47045 18.8217 3.56208 13.661 5.82536H13.6668Z" fill="#5B8EF4"/>
<path d="M138.75 35.0525V39.2078H137.847V33.9246H138.701L138.75 35.0525ZM138.535 36.366L138.159 36.3513C138.162 35.99 138.216 35.6563 138.32 35.3503C138.424 35.0411 138.571 34.7725 138.76 34.5447C138.949 34.3168 139.173 34.141 139.434 34.0173C139.697 33.8904 139.989 33.8269 140.308 33.8269C140.568 33.8269 140.802 33.8627 141.011 33.9343C141.219 34.0027 141.396 34.1134 141.543 34.2664C141.693 34.4194 141.807 34.6179 141.885 34.8621C141.963 35.1029 142.002 35.3975 142.002 35.7458V39.2078H141.094V35.7361C141.094 35.4594 141.053 35.238 140.972 35.072C140.89 34.9028 140.771 34.7807 140.615 34.7058C140.459 34.6277 140.267 34.5886 140.039 34.5886C139.814 34.5886 139.609 34.6358 139.424 34.7302C139.242 34.8246 139.084 34.9548 138.95 35.1208C138.82 35.2869 138.717 35.4773 138.643 35.6921C138.571 35.9037 138.535 36.1283 138.535 36.366Z" fill="#2F3239"/>
<path d="M131.904 36.6248V36.5125C131.904 36.1316 131.96 35.7784 132.07 35.4529C132.181 35.1241 132.34 34.8393 132.549 34.5984C132.757 34.3542 133.009 34.1654 133.306 34.032C133.602 33.8953 133.934 33.8269 134.302 33.8269C134.673 33.8269 135.007 33.8953 135.303 34.032C135.602 34.1654 135.856 34.3542 136.064 34.5984C136.276 34.8393 136.437 35.1241 136.548 35.4529C136.659 35.7784 136.714 36.1316 136.714 36.5125V36.6248C136.714 37.0056 136.659 37.3588 136.548 37.6843C136.437 38.0098 136.276 38.2947 136.064 38.5388C135.856 38.7797 135.604 38.9685 135.308 39.1052C135.015 39.2387 134.683 39.3054 134.312 39.3054C133.94 39.3054 133.607 39.2387 133.311 39.1052C133.014 38.9685 132.76 38.7797 132.549 38.5388C132.34 38.2947 132.181 38.0098 132.07 37.6843C131.96 37.3588 131.904 37.0056 131.904 36.6248ZM132.808 36.5125V36.6248C132.808 36.8884 132.839 37.1375 132.9 37.3718C132.962 37.6029 133.055 37.808 133.179 37.9871C133.306 38.1661 133.464 38.3077 133.652 38.4119C133.841 38.5128 134.061 38.5632 134.312 38.5632C134.559 38.5632 134.775 38.5128 134.961 38.4119C135.15 38.3077 135.306 38.1661 135.43 37.9871C135.553 37.808 135.646 37.6029 135.708 37.3718C135.773 37.1375 135.806 36.8884 135.806 36.6248V36.5125C135.806 36.252 135.773 36.0063 135.708 35.7751C135.646 35.5408 135.552 35.3341 135.425 35.155C135.301 34.9727 135.145 34.8295 134.956 34.7253C134.771 34.6212 134.552 34.5691 134.302 34.5691C134.054 34.5691 133.836 34.6212 133.647 34.7253C133.462 34.8295 133.306 34.9727 133.179 35.155C133.055 35.3341 132.962 35.5408 132.9 35.7751C132.839 36.0063 132.808 36.252 132.808 36.5125Z" fill="#2F3239"/>
<path d="M130.693 33.9246V39.2078H129.785V33.9246H130.693ZM129.717 32.5232C129.717 32.3767 129.761 32.253 129.849 32.1521C129.94 32.0512 130.073 32.0007 130.249 32.0007C130.422 32.0007 130.553 32.0512 130.645 32.1521C130.739 32.253 130.786 32.3767 130.786 32.5232C130.786 32.6632 130.739 32.7836 130.645 32.8845C130.553 32.9822 130.422 33.031 130.249 33.031C130.073 33.031 129.94 32.9822 129.849 32.8845C129.761 32.7836 129.717 32.6632 129.717 32.5232Z" fill="#2F3239"/>
<path d="M128.652 33.9246V34.6179H125.796V33.9246H128.652ZM126.763 32.6404H127.666V37.8992C127.666 38.0782 127.694 38.2133 127.749 38.3044C127.804 38.3956 127.876 38.4558 127.964 38.4851C128.052 38.5144 128.146 38.5291 128.247 38.5291C128.322 38.5291 128.4 38.5225 128.481 38.5095C128.566 38.4932 128.63 38.4802 128.672 38.4705L128.677 39.2078C128.605 39.2306 128.511 39.2517 128.394 39.2712C128.28 39.294 128.141 39.3054 127.979 39.3054C127.757 39.3054 127.554 39.2615 127.368 39.1736C127.183 39.0857 127.035 38.9392 126.924 38.7341C126.816 38.5258 126.763 38.2458 126.763 37.8943V32.6404Z" fill="#2F3239"/>
<path d="M124.116 38.3044V35.5847C124.116 35.3764 124.074 35.1957 123.989 35.0427C123.908 34.8865 123.784 34.766 123.618 34.6814C123.452 34.5968 123.247 34.5544 123.003 34.5544C122.775 34.5544 122.575 34.5935 122.402 34.6716C122.233 34.7498 122.1 34.8523 122.002 34.9792C121.908 35.1062 121.86 35.2429 121.86 35.3894H120.957C120.957 35.2006 121.006 35.0134 121.104 34.8279C121.201 34.6423 121.341 34.4747 121.523 34.325C121.709 34.172 121.93 34.0515 122.188 33.9636C122.448 33.8725 122.738 33.8269 123.057 33.8269C123.441 33.8269 123.779 33.892 124.072 34.0222C124.368 34.1524 124.6 34.3494 124.766 34.613C124.935 34.8735 125.02 35.2006 125.02 35.5945V38.0554C125.02 38.2312 125.034 38.4184 125.063 38.6169C125.096 38.8155 125.143 38.9864 125.205 39.1296V39.2078H124.263C124.217 39.1036 124.181 38.9653 124.155 38.7927C124.129 38.6169 124.116 38.4542 124.116 38.3044ZM124.272 36.0046L124.282 36.6394H123.369C123.112 36.6394 122.882 36.6606 122.681 36.7029C122.479 36.7419 122.31 36.8022 122.173 36.8835C122.036 36.9649 121.932 37.0675 121.86 37.1912C121.789 37.3116 121.753 37.4532 121.753 37.616C121.753 37.782 121.79 37.9333 121.865 38.0701C121.94 38.2068 122.052 38.3158 122.202 38.3972C122.355 38.4753 122.542 38.5144 122.764 38.5144C123.04 38.5144 123.285 38.4558 123.496 38.3386C123.708 38.2214 123.875 38.0782 123.999 37.9089C124.126 37.7397 124.194 37.5753 124.204 37.4158L124.59 37.8503C124.567 37.9871 124.505 38.1384 124.404 38.3044C124.303 38.4705 124.168 38.63 123.999 38.783C123.833 38.9327 123.634 39.058 123.403 39.1589C123.175 39.2566 122.918 39.3054 122.632 39.3054C122.274 39.3054 121.96 39.2354 121.689 39.0955C121.423 38.9555 121.214 38.7683 121.064 38.5339C120.918 38.2963 120.845 38.031 120.845 37.738C120.845 37.4548 120.9 37.2058 121.011 36.991C121.121 36.7729 121.281 36.5922 121.489 36.449C121.698 36.3025 121.948 36.1918 122.241 36.1169C122.534 36.0421 122.861 36.0046 123.223 36.0046H124.272Z" fill="#2F3239"/>
<path d="M119.941 33.9246V34.6179H117.085V33.9246H119.941ZM118.052 32.6404H118.955V37.8992C118.955 38.0782 118.983 38.2133 119.038 38.3044C119.093 38.3956 119.165 38.4558 119.253 38.4851C119.341 38.5144 119.435 38.5291 119.536 38.5291C119.611 38.5291 119.689 38.5225 119.771 38.5095C119.855 38.4932 119.919 38.4802 119.961 38.4705L119.966 39.2078C119.894 39.2306 119.8 39.2517 119.683 39.2712C119.569 39.294 119.43 39.3054 119.268 39.3054C119.046 39.3054 118.843 39.2615 118.657 39.1736C118.472 39.0857 118.324 38.9392 118.213 38.7341C118.105 38.5258 118.052 38.2458 118.052 37.8943V32.6404Z" fill="#2F3239"/>
<path d="M113.105 35.0525V39.2078H112.202V33.9246H113.057L113.105 35.0525ZM112.891 36.366L112.515 36.3513C112.518 35.99 112.572 35.6563 112.676 35.3503C112.78 35.0411 112.926 34.7725 113.115 34.5447C113.304 34.3168 113.529 34.141 113.789 34.0173C114.053 33.8904 114.344 33.8269 114.663 33.8269C114.924 33.8269 115.158 33.8627 115.366 33.9343C115.575 34.0027 115.752 34.1134 115.898 34.2664C116.048 34.4194 116.162 34.6179 116.24 34.8621C116.318 35.1029 116.357 35.3975 116.357 35.7458V39.2078H115.449V35.7361C115.449 35.4594 115.409 35.238 115.327 35.072C115.246 34.9028 115.127 34.7807 114.971 34.7058C114.814 34.6277 114.622 34.5886 114.395 34.5886C114.17 34.5886 113.965 34.6358 113.779 34.7302C113.597 34.8246 113.439 34.9548 113.306 35.1208C113.175 35.2869 113.073 35.4773 112.998 35.6921C112.926 35.9037 112.891 36.1283 112.891 36.366Z" fill="#2F3239"/>
<path d="M109.092 39.3054C108.724 39.3054 108.39 39.2436 108.091 39.1199C107.795 38.9929 107.539 38.8155 107.324 38.5876C107.113 38.3598 106.95 38.0896 106.836 37.7771C106.722 37.4646 106.665 37.1228 106.665 36.7517V36.5466C106.665 36.1169 106.729 35.7345 106.855 35.3992C106.982 35.0606 107.155 34.7742 107.373 34.5398C107.591 34.3054 107.839 34.128 108.115 34.0076C108.392 33.8871 108.678 33.8269 108.975 33.8269C109.352 33.8269 109.678 33.892 109.951 34.0222C110.228 34.1524 110.454 34.3347 110.63 34.5691C110.806 34.8002 110.936 35.0736 111.021 35.3894C111.105 35.7019 111.147 36.0437 111.147 36.4148V36.8201H107.202V36.0828H110.244V36.0144C110.231 35.78 110.182 35.5522 110.098 35.3308C110.016 35.1095 109.886 34.9272 109.707 34.7839C109.528 34.6407 109.284 34.5691 108.975 34.5691C108.77 34.5691 108.581 34.613 108.408 34.7009C108.236 34.7856 108.088 34.9125 107.964 35.0818C107.84 35.2511 107.744 35.4578 107.676 35.7019C107.607 35.946 107.573 36.2276 107.573 36.5466V36.7517C107.573 37.0024 107.607 37.2384 107.676 37.4597C107.747 37.6778 107.85 37.8699 107.983 38.0359C108.12 38.2019 108.285 38.3321 108.477 38.4265C108.672 38.5209 108.893 38.5681 109.141 38.5681C109.46 38.5681 109.73 38.503 109.951 38.3728C110.173 38.2426 110.366 38.0684 110.532 37.8503L111.079 38.2849C110.965 38.4574 110.82 38.6218 110.645 38.7781C110.469 38.9343 110.252 39.0613 109.995 39.1589C109.741 39.2566 109.44 39.3054 109.092 39.3054Z" fill="#2F3239"/>
<path d="M99.0283 34.9744V39.2078H98.1201V33.9246H98.9795L99.0283 34.9744ZM98.8428 36.366L98.4229 36.3513C98.4261 35.99 98.4733 35.6563 98.5645 35.3503C98.6556 35.0411 98.7907 34.7725 98.9697 34.5447C99.1488 34.3168 99.3717 34.141 99.6387 34.0173C99.9056 33.8904 100.215 33.8269 100.566 33.8269C100.814 33.8269 101.042 33.8627 101.25 33.9343C101.458 34.0027 101.639 34.1117 101.792 34.2615C101.945 34.4112 102.064 34.6033 102.148 34.8376C102.233 35.072 102.275 35.3552 102.275 35.6873V39.2078H101.372V35.7312C101.372 35.4545 101.325 35.2332 101.23 35.0671C101.139 34.9011 101.009 34.7807 100.84 34.7058C100.671 34.6277 100.472 34.5886 100.244 34.5886C99.9772 34.5886 99.7542 34.6358 99.5752 34.7302C99.3962 34.8246 99.2529 34.9548 99.1455 35.1208C99.0381 35.2869 98.96 35.4773 98.9111 35.6921C98.8656 35.9037 98.8428 36.1283 98.8428 36.366ZM102.266 35.8679L101.66 36.0535C101.663 35.7638 101.711 35.4854 101.802 35.2185C101.896 34.9516 102.031 34.7139 102.207 34.5056C102.386 34.2973 102.606 34.1329 102.866 34.0125C103.127 33.8888 103.424 33.8269 103.76 33.8269C104.043 33.8269 104.294 33.8643 104.512 33.9392C104.733 34.0141 104.919 34.1296 105.068 34.2859C105.221 34.4389 105.337 34.6358 105.415 34.8767C105.493 35.1176 105.532 35.4041 105.532 35.7361V39.2078H104.624V35.7263C104.624 35.4301 104.577 35.2006 104.482 35.0378C104.391 34.8718 104.261 34.7563 104.092 34.6912C103.926 34.6228 103.727 34.5886 103.496 34.5886C103.298 34.5886 103.122 34.6228 102.969 34.6912C102.816 34.7595 102.687 34.8539 102.583 34.9744C102.479 35.0916 102.399 35.2266 102.344 35.3796C102.292 35.5326 102.266 35.6954 102.266 35.8679Z" fill="#2F3239"/>
<path d="M95.8447 37.9871V33.9246H96.7529V39.2078H95.8887L95.8447 37.9871ZM96.0156 36.8738L96.3916 36.864C96.3916 37.2156 96.3542 37.5411 96.2793 37.8406C96.2077 38.1368 96.0905 38.394 95.9277 38.6121C95.765 38.8302 95.5518 39.0011 95.2881 39.1248C95.0244 39.2452 94.7038 39.3054 94.3262 39.3054C94.069 39.3054 93.833 39.268 93.6182 39.1931C93.4066 39.1182 93.2243 39.0027 93.0713 38.8464C92.9183 38.6902 92.7995 38.4867 92.7148 38.2361C92.6335 37.9854 92.5928 37.6843 92.5928 37.3328V33.9246H93.4961V37.3425C93.4961 37.5802 93.5221 37.7771 93.5742 37.9333C93.6296 38.0863 93.7028 38.2084 93.7939 38.2996C93.8883 38.3875 93.9925 38.4493 94.1064 38.4851C94.2236 38.5209 94.3441 38.5388 94.4678 38.5388C94.8519 38.5388 95.1562 38.4656 95.3809 38.3191C95.6055 38.1694 95.7666 37.9692 95.8643 37.7185C95.9652 37.4646 96.0156 37.183 96.0156 36.8738Z" fill="#2F3239"/>
<path d="M89.4922 38.5632C89.707 38.5632 89.9056 38.5193 90.0879 38.4314C90.2702 38.3435 90.4199 38.2231 90.5371 38.0701C90.6543 37.9138 90.721 37.7364 90.7373 37.5378H91.5967C91.5804 37.8503 91.4746 38.1417 91.2793 38.4119C91.0872 38.6788 90.835 38.8953 90.5225 39.0613C90.21 39.224 89.8665 39.3054 89.4922 39.3054C89.0951 39.3054 88.7484 39.2354 88.4521 39.0955C88.1592 38.9555 87.915 38.7634 87.7197 38.5193C87.5277 38.2751 87.3828 37.9952 87.2852 37.6794C87.1908 37.3604 87.1436 37.0235 87.1436 36.6687V36.4636C87.1436 36.1088 87.1908 35.7735 87.2852 35.4578C87.3828 35.1388 87.5277 34.8572 87.7197 34.613C87.915 34.3689 88.1592 34.1768 88.4521 34.0369C88.7484 33.8969 89.0951 33.8269 89.4922 33.8269C89.9056 33.8269 90.2669 33.9115 90.5762 34.0808C90.8854 34.2468 91.1279 34.4747 91.3037 34.7644C91.4827 35.0509 91.5804 35.3764 91.5967 35.741H90.7373C90.721 35.5229 90.6592 35.3259 90.5518 35.1501C90.4476 34.9744 90.3044 34.8344 90.1221 34.7302C89.943 34.6228 89.7331 34.5691 89.4922 34.5691C89.2155 34.5691 88.9827 34.6244 88.7939 34.7351C88.6084 34.8425 88.4603 34.989 88.3496 35.1746C88.2422 35.3569 88.1641 35.5603 88.1152 35.7849C88.0697 36.0063 88.0469 36.2325 88.0469 36.4636V36.6687C88.0469 36.8998 88.0697 37.1277 88.1152 37.3523C88.1608 37.5769 88.2373 37.7804 88.3447 37.9626C88.4554 38.1449 88.6035 38.2914 88.7891 38.4021C88.9779 38.5095 89.2122 38.5632 89.4922 38.5632Z" fill="#2F3239"/>
<path d="M81.4355 36.6248V36.5125C81.4355 36.1316 81.4909 35.7784 81.6016 35.4529C81.7122 35.1241 81.8717 34.8393 82.0801 34.5984C82.2884 34.3542 82.5407 34.1654 82.8369 34.032C83.1331 33.8953 83.4652 33.8269 83.833 33.8269C84.2041 33.8269 84.5378 33.8953 84.834 34.032C85.1335 34.1654 85.3874 34.3542 85.5957 34.5984C85.8073 34.8393 85.9684 35.1241 86.0791 35.4529C86.1898 35.7784 86.2451 36.1316 86.2451 36.5125V36.6248C86.2451 37.0056 86.1898 37.3588 86.0791 37.6843C85.9684 38.0098 85.8073 38.2947 85.5957 38.5388C85.3874 38.7797 85.1351 38.9685 84.8389 39.1052C84.5459 39.2387 84.2139 39.3054 83.8428 39.3054C83.4717 39.3054 83.138 39.2387 82.8418 39.1052C82.5456 38.9685 82.2917 38.7797 82.0801 38.5388C81.8717 38.2947 81.7122 38.0098 81.6016 37.6843C81.4909 37.3588 81.4355 37.0056 81.4355 36.6248ZM82.3389 36.5125V36.6248C82.3389 36.8884 82.3698 37.1375 82.4316 37.3718C82.4935 37.6029 82.5863 37.808 82.71 37.9871C82.8369 38.1661 82.9948 38.3077 83.1836 38.4119C83.3724 38.5128 83.5921 38.5632 83.8428 38.5632C84.0902 38.5632 84.3066 38.5128 84.4922 38.4119C84.681 38.3077 84.8372 38.1661 84.9609 37.9871C85.0846 37.808 85.1774 37.6029 85.2393 37.3718C85.3044 37.1375 85.3369 36.8884 85.3369 36.6248V36.5125C85.3369 36.252 85.3044 36.0063 85.2393 35.7751C85.1774 35.5408 85.083 35.3341 84.9561 35.155C84.8324 34.9727 84.6761 34.8295 84.4873 34.7253C84.3018 34.6212 84.0837 34.5691 83.833 34.5691C83.5856 34.5691 83.3675 34.6212 83.1787 34.7253C82.9932 34.8295 82.8369 34.9727 82.71 35.155C82.5863 35.3341 82.4935 35.5408 82.4316 35.7751C82.3698 36.0063 82.3389 36.252 82.3389 36.5125Z" fill="#2F3239"/>
<path d="M77.1729 39.2078H75.6885L75.6982 38.4412H77.1729C77.6807 38.4412 78.1038 38.3354 78.4424 38.1238C78.7809 37.9089 79.0348 37.6095 79.2041 37.2253C79.3766 36.838 79.4629 36.3855 79.4629 35.8679V35.4333C79.4629 35.0264 79.4141 34.6651 79.3164 34.3494C79.2188 34.0304 79.0755 33.7618 78.8867 33.5437C78.6979 33.3223 78.4668 33.1547 78.1934 33.0408C77.9232 32.9268 77.6123 32.8699 77.2607 32.8699H75.6592V32.0984H77.2607C77.7262 32.0984 78.151 32.1765 78.5352 32.3328C78.9193 32.4858 79.2497 32.7087 79.5264 33.0017C79.8063 33.2914 80.0212 33.643 80.1709 34.0564C80.3206 34.4666 80.3955 34.9288 80.3955 35.4431V35.8679C80.3955 36.3822 80.3206 36.8461 80.1709 37.2595C80.0212 37.6697 79.8047 38.0196 79.5215 38.3093C79.2415 38.599 78.903 38.822 78.5059 38.9783C78.112 39.1313 77.6676 39.2078 77.1729 39.2078ZM76.1914 32.0984V39.2078H75.249V32.0984H76.1914Z" fill="#2F3239"/>
</svg>
